<svg id="Layer_1" data-name="Layer 1" xmlns="http://www.w3.org/2000/svg" viewBox="0 0 1080 565.31"><defs><style>.cls-1{fill:#5e9fb1;}</style></defs><path class="cls-1" d="M789.58,271.93c-29.66,0-59.33.07-89-.05-6,0-13.32,1.09-13.9-8.09s6.17-9.12,12.58-9.54c10.9-.7,16.24-6.36,16.12-17.57-.22-22.66.16-45.33-.13-68-.24-18.33-8.4-29.8-23.23-33.88-15.35-4.23-34.84,3.43-43.24,16.87a57.89,57.89,0,0,0-9.15,29.16c-.55,18.94-.25,37.9-.22,56.85,0,10.82,6.5,15.41,16.35,16.31,6.24.57,13.21,0,12.42,9.45-.76,9.05-7.93,8.16-14,8.19-27.61.13-55.21.08-82.82,0-6,0-11.82-.42-11.79-8.9,0-7.64,5-8.07,10.78-8.58,15.17-1.35,18.5-4.94,18.65-20.11.18-19,.12-37.91,0-56.86-.1-26.41-11-41.47-31-43.05-20.73-1.63-42.43,16.73-44.19,40-1.65,21.71-.76,43.64-.36,65.46.18,10.1,7.16,14.21,16.54,14.63,6.22.28,11.94,1.1,11.67,9.22-.29,8.29-6.52,8.35-12.45,8.37-21,.07-42,0-63,.07-16.84.05-33.46-.08-50.15,4.62-21.83,6.15-41,.47-53.56-19.86-4.72-7.64-8.73-4.81-13.74-.8-22.87,18.32-48.72,25.54-77.55,19.23-18.25-4-33.94-12.37-37.11-33-3-19.28,6.63-33.29,22.06-43.68,18.64-12.56,40.68-15.2,61.79-20.44,9.18-2.28,18.53-4,27.89-5.41,8.05-1.23,10.73-5.51,10.91-13.48.73-32.81-24.46-50.07-54.7-37.28-7.05,3-9.23,6.48-5.71,14.19,6.84,15,4.37,24.2-6.82,31.08s-29.82,4.3-37.68-5c-8.08-9.55-6.79-23.87,3.67-34.64,12.89-13.27,29.76-19.1,47.19-22.76,23-4.84,46-2.75,68.27,4.26,23.71,7.46,35.5,24,35.65,48.94.15,23.89-.07,47.79.09,71.68.12,16.49,9.4,24.75,27,24.52,17.88-.23,27.15-8.34,27.26-24.42q.26-40.17,0-80.34C461,134,458.36,131,442.9,128.59c-5.52-.87-9.44-2.36-9.37-8.93s3.8-8.15,9.46-8.8c16.81-1.9,33.72-1.63,50.54-2.75,10.64-.71,14.47,2.86,16,13,2.53,16.95,3.3,17.06,16.5,5.95,17.07-14.36,36.05-22.23,58.85-21.34,21.22.82,37.57,9.27,47.65,27.79,4.71,8.67,7.27,6.93,12.85,1.08,19.75-20.69,43.36-32.49,72.84-28.79,27.61,3.46,43.88,20.86,47.22,48.81,3.05,25.5,1.34,51,1.82,76.53.32,17.06,6.63,23.15,24.33,22.84s25-6.93,25.11-22.92q.15-39.54,0-79.1c-.08-17.57-2.33-20.33-19.82-23.43-5.78-1-9.21-3.24-8.86-9.46.37-6.53,4.8-7.81,10.27-8,18.09-.76,36.19-1.35,54.25-2.59,10.69-.74,14.55,3.2,14.4,14.1-.5,36.66-.22,73.33-.16,110,0,18.44.75,19.52,18.57,21.8,6.31.81,8.64,3.55,8.39,9.56-.29,6.82-4.9,7.9-10.21,7.91q-47,.07-93.94,0Zm-432.83-67c.33-17.11.21-17.2-17.13-14.44-9.78,1.56-19.33,3.91-28.3,8.17C302,203.11,295.31,210.1,292,220c-6.18,18.64,3.53,32.12,23,32.12C341.24,252.12,356.17,235.24,356.75,204.94Z"/><path class="cls-1" d="M9.58,399c0-74.22,59.05-132.33,134.11-132,78,.32,138.25,58.45,138,133.24-.2,73-61.35,131.44-137.34,131.2C67.31,531.15,9.56,474.43,9.58,399Zm205.25.34c.64-22.39-.88-43.32-5.89-63.79-6.75-27.62-28.26-46.75-53.95-48.91-33.87-2.84-54.2,8.48-67.64,37.66a114.17,114.17,0,0,0-7.9,25.92C72.59,385,74,419.75,80,454.37a75.53,75.53,0,0,0,16,35.66c17.62,21.27,41,25.5,66,20.05,27.29-5.93,40.4-26.73,46.84-52.11A203.09,203.09,0,0,0,214.83,399.32Z"/><path class="cls-1" d="M353.81,388.61c0,32.94-.07,65.87.05,98.8.05,14.3,4.37,19.12,18.57,20.93a95.75,95.75,0,0,0,13.56.41c20.72-.32,26.35-6,26.4-26.55.06-24.29.13-48.58,0-72.87-.12-18.78-3-22.31-21.73-26.25-5.62-1.18-7.61-4-7.5-9.29.11-5.69,3.2-8,8.56-8.26,19.31-.82,38.63-1.5,57.92-2.65,10-.6,12.77,4.13,12.71,13.3-.25,38.29.14,76.57-.2,114.86-.11,11.75,4.15,18,16.36,17.77,5.77-.1,10.81.86,10.93,8.43.14,8.34-5.49,9.11-11.62,9.13q-59.9.12-119.79.15-35.21,0-70.39,0c-5.92,0-12.14,0-12.52-8.24s5.33-8.76,11.53-9.32c14.38-1.31,17.08-4.39,17.11-19.8q.15-77.81,0-155.61c0-17.55-4.42-22.28-22.15-24.36-4.92-.58-9.05-1.31-9.29-7.41-.24-5.86,3.2-8,8.39-8.4,7.78-.65,15.54-1.58,23.34-1.92,13.49-.58,25.91-4.21,37.12-11.83,2.95-2,5.66-5.7,9.75-3.53s2.83,6.52,2.84,10.05C353.83,320.28,353.79,354.45,353.81,388.61Z"/><path class="cls-1" d="M158.93,131.08c0-24.71.08-49.42,0-74.13-.07-16.41-3.25-19.48-19.5-19.67-4.53-.05-9.06-.08-13.59,0-6,0-10.79-1.26-10.44-8.77.33-7,4.73-8.87,10.85-8.87,19.76,0,39.53-.05,59.3-.05q27.79,0,55.59,0c6.15,0,11.9.45,11.9,8.77s-5.89,8.47-11.95,8.76c-20.48,1-22.18,2.78-22.19,23.49-.05,45.71-.59,91.44.17,137.14.57,34.53-15.39,58-46.51,69.82-40.25,15.28-80.21,15.24-115.66-13.17-28.4-22.75-30-59.55-4.31-79.86,13.1-10.36,28-12,43-4.74,12.26,5.92,20.09,15.44,19.69,30.13-.44,16-11.13,27.07-27.1,27.79-1.64.07-3.31-.16-4.94,0-5.79.53-14-3-16.08,4.93-2.29,8.67,3.73,14.61,11.28,18.41a73,73,0,0,0,30.78,8.22c30.38.9,48.78-17.35,49.58-50.34.64-25.93.13-51.88.13-77.83Z"/><path class="cls-1" d="M794.49,447.58c-16,0-32.1.28-48.14-.11-9-.21-13,3.06-12.09,12.3,2,19.26,7.68,36.68,26.23,46,19.3,9.74,38.36,7.16,56.19-4.46A73.45,73.45,0,0,0,837.92,481c4.34-6.47,9.41-5.37,14.74-1.52,6.44,4.67,1.6,8.57-1.07,12.4C815.22,544,737.11,539.77,701.13,507c-24.4-22.24-33.4-57.48-22.4-89.36C690,384.89,722.5,360,756.58,358.06c32.26-1.82,61.61,4.16,82.52,31.77,9.75,12.87,13.35,28.09,16,43.6,1.63,9.65-1.59,14.66-12.44,14.27-16-.58-32.09-.15-48.14-.15ZM767.91,430V430c8.21,0,16.42.05,24.62,0,6-.05,10.68-2.53,12-8.54,3.17-14.17-.17-27.23-9.88-37.77-8.76-9.5-20.29-11.73-32.8-8.25-15.87,4.41-31.88,33.61-27,49,1.61,5.12,5.52,5.55,9.7,5.62C752.31,430.11,760.11,430,767.91,430Z"/><path class="cls-1" d="M1008.9,195.54c-16.47,0-32.94.21-49.4-.08-8.61-.15-12.07,3.23-10.79,11.9,3.17,21.35,10,40.41,32.37,48.63s42,1.47,59.25-13.74a81.75,81.75,0,0,0,11.88-12.52c4.1-5.55,8-7.78,14.29-3.24,7.5,5.43,2.52,10.17-.75,14.53-19.49,26-46.36,37.45-78.09,38a115.78,115.78,0,0,1-40-6.48c-62.34-21.72-78.55-95.48-31-141.43,34-32.9,97.61-34,129.61-2.27,15.08,14.95,21.65,33.48,23.45,54.3.78,9.06-1.93,12.8-11.36,12.52-16.46-.48-32.94-.13-49.4-.13ZM982.09,178.1v.1c4.52,0,9,0,13.57,0,22.9,0,28.42-7.08,23.17-29.51-3.24-13.84-15.47-25.24-29-27-14.23-1.83-26.45,5.54-33.57,19.78-4.34,8.67-5.39,18-6.82,27.35-1,6.64,1.77,9.22,7.93,9.24C965.64,178.13,973.87,178.1,982.09,178.1Z"/><path class="cls-1" d="M929.85,404.93c5.81-8.9,9.86-15.95,14.71-22.39,14.85-19.72,43.81-27.78,64.12-17.92,10.74,5.21,17.55,13.28,17.59,26,0,10.92-4.2,19.11-14.11,24-8.62,4.29-17.1,3.45-24.28-2.6-6.71-5.65-9.44-13.22-7-22.23,1.13-4.1,5-9.27.08-12.4-5.41-3.42-10.3.9-14.15,4.55-11,10.46-17.69,23.59-22.34,37.88-8.06,24.74-7.85,50.26-7.3,75.83.19,8.53,4.49,12.93,13,13.14,5.35.13,10.7.08,16.05,0,6.23-.06,10.41,1.93,10.22,9.15-.19,6.69-4.45,8.19-9.93,8.21q-24.09.1-48.18.1c-17.29,0-34.58,0-51.88-.07-5.56,0-11-.38-11.3-8.08-.37-8.25,4.86-9,11.21-9.44,17-1.15,18.76-3.08,18.81-20.2.06-27.59.14-55.18,0-82.76-.12-17-4-21.17-20.54-22.8-5.75-.56-11-1.25-11-8.61-.08-7.16,4.59-8.7,10.64-9,16.85-.71,33.72-1.17,50.51-2.63,12.25-1.06,16.24,4,15.26,15.61C929.3,386.41,929.85,394.54,929.85,404.93Z"/><path class="cls-1" d="M527.09,363c13.18,0,26.36-.06,39.55,0,5.39,0,11.21-.24,11.64,7.6.39,7.19-4.13,8.77-10.09,9.62-15.78,2.25-18.14,6.71-10.05,21.14,11.67,20.84,24.15,41.22,36.16,61.87,3.34,5.75,6.3,7.42,10.09.42,10.78-19.92,22-39.6,32.36-59.75,6.52-12.73,2.47-20-11.9-23-6-1.27-11.78-2.09-11-10.16.78-8.33,7.27-7.68,13-7.71,16.89-.1,33.78-.13,50.67,0,5.2,0,11.23-.82,12.25,7,.87,6.68-2.44,9.63-8.59,11.19-8.1,2-13.07,7.88-17,15.09q-32.5,59.67-65.3,119.17c-8.57,15.6-17.37,15.77-26.72.27-23.18-38.45-46.16-77-69.27-115.51-5.7-9.5-10.54-19.88-24.05-20.55-4.7-.23-5.45-4.05-5-8.28.61-5.38,3.25-8.27,8.75-8.27q22.25,0,44.49,0Z"/><path class="cls-1" d="M402.62,318.52c.25-15.45,13.7-27.46,30.46-27.2,16.56.25,31.4,13.92,31.25,28.79-.15,14.67-15.68,28.27-32,28C415.25,347.82,402.35,335,402.62,318.52Z"/><path class="cls-1" d="M840.08,94.24c-18.08.08-30.87-11.47-30.85-27.86,0-16.1,13.86-29.07,30.61-28.7s30.85,13.69,30.76,29C870.52,81.28,856.23,94.17,840.08,94.24Z"/></svg>